<?xml version="1.0" encoding="UTF-8" standalone="no"?><svg id="SvgjsSvg1006" width="4915.038232795242px" height="5000px" xmlns="http://www.w3.org/2000/svg" version="1.1" xmlns:xlink="http://www.w3.org/1999/xlink" xmlns:svgjs="http://svgjs.com/svgjs" viewBox="0 0 180.78125 183.90625"><defs id="SvgjsDefs1007"></defs><g id="SvgjsG1009" transform="rotate(0 90.390625 38.4609375)"><svg width="120" viewBox="0 0 89.41500091552734 57.3180046081543" xmlns="http://www.w3.org/2000/svg" version="1.1" xmlns:xlink="http://www.w3.org/1999/xlink" xmlns:svgjs="http://svgjs.com/svgjs" preserveAspectRatio="none" height="76.921875" x="30.390625" y="0"><g><svg data-color="1" xmlns="http://www.w3.org/2000/svg" xmlns:xlink="http://www.w3.org/1999/xlink" version="1.1" x="0px" y="0px" viewBox="5.367000102996826 22.297000885009766 89.41500091552734 57.3180046081543" enable-background="new 0 0 100 100" xml:space="preserve" width="89.41500091552734" height="57.3180046081543" fill="#edbe00"><path d="M81.809,51.001l3.39,3.39l3.39-3.39l-3.39-3.39L81.809,51.001z M92.346,48.566l-2.435,2.435l2.435,2.436l2.436-2.436  L92.346,48.566z M5.367,51.001l2.435,2.436l2.436-2.436l-2.436-2.435L5.367,51.001z M14.863,47.611l-3.39,3.39l3.39,3.39l3.391-3.39  L14.863,47.611z M60.179,32.483L49.992,22.297L39.806,32.483L49.992,42.67L60.179,32.483z M45.251,36.515l4.736-4.737l4.746,4.737  l-4.741,4.741L45.251,36.515z M39.806,69.428l10.187,10.187l10.187-10.187L49.992,59.242L39.806,69.428z M54.979,65.643  l-4.992,4.983l-4.983-4.983l4.988-4.987L54.979,65.643z M83.995,45.82l-0.707-0.707l-5.182,5.181l-9.479-9.479L58.441,51.001  l10.186,10.187l9.479-9.479l5.182,5.182l0.707-0.707l-5.182-5.182L83.995,45.82z M64.44,46.416l4.594,4.585l-4.594,4.585  l-4.584-4.585L64.44,46.416z M35.568,57.116l0.005,0.005l6.11-6.12L31.501,40.819l-9.484,9.474l-5.181-5.18l-0.707,0.707L21.31,51  l-0.001,0.001l0.001,0.001l-5.181,5.181l0.707,0.707l5.181-5.181l9.484,9.474L35.568,57.116z M40.27,51.001l-4.701,4.701l-4.7-4.701  l4.705-4.695L40.27,51.001z M68.24,37.128l-0.707-0.707l-5.772,5.772l-2.646-2.646l-0.707,0.707l2.646,2.646l-1.355,1.355  l-2.646-2.646l-0.707,0.707l2.646,2.646l-5.437,5.437l-3.563-3.563l-3.563,3.563l-5.478-5.478l2.604-2.605l-0.707-0.707  l-2.604,2.605l-1.355-1.355l2.605-2.604l-0.707-0.707l-2.605,2.604l-5.731-5.731l-0.707,0.707l13.979,13.979L31.744,65.085  l0.707,0.707l5.642-5.642l2.694,2.694l0.707-0.707L38.8,59.443l1.355-1.355l2.693,2.693l0.707-0.707l-2.693-2.693l5.567-5.567  l3.563,3.563l3.563-3.563l5.526,5.526l-2.735,2.734l0.707,0.707l2.735-2.734l1.354,1.355l-2.734,2.735l0.707,0.707l2.734-2.735  l5.684,5.684l0.707-0.707L54.262,51.106L68.24,37.128z"></path></svg></g><defs id="SvgjsDefs1008"></defs></svg></g><g id="SvgjsG1011" transform="rotate(0 90.390625 127.6640625)"><svg xmlns="http://www.w3.org/2000/svg" xmlns:xlink="http://www.w3.org/1999/xlink" width="180.78125" viewBox="2.319999933242798 8.380000114440918 180.7899932861328 35.5" overflow="visible" style="overflow: visible;" transform="" version="1.1" xmlns:svgjs="http://svgjs.com/svgjs" preserveAspectRatio="none" height="35.484375" x="0" y="109.921875" fill="#000000" stroke="none"><path stroke="none" fill="#edbe00" d="M25.22 31.06L25.22 35.63L8.74 35.63L8.74 35.63Q8.10 35.63 7.37 35.48L7.37 35.48L7.37 35.48Q6.64 35.33 5.93 35.02L5.93 35.02L5.93 35.02Q5.22 34.70 4.57 34.20L4.57 34.20L4.57 34.20Q3.92 33.70 3.42 32.99L3.42 32.99L3.42 32.99Q2.92 32.27 2.62 31.33L2.62 31.33L2.62 31.33Q2.32 30.39 2.32 29.21L2.32 29.21L2.32 16.84L2.32 16.84Q2.32 16.21 2.47 15.48L2.47 15.48L2.47 15.48Q2.62 14.75 2.94 14.04L2.94 14.04L2.94 14.04Q3.25 13.32 3.76 12.67L3.76 12.67L3.76 12.67Q4.27 12.02 4.98 11.52L4.98 11.52L4.98 11.52Q5.70 11.02 6.63 10.72L6.63 10.72L6.63 10.72Q7.56 10.42 8.74 10.42L8.74 10.42L25.22 10.42L25.22 14.99L8.74 14.99L8.74 14.99Q7.84 14.99 7.37 15.47L7.37 15.47L7.37 15.47Q6.89 15.94 6.89 16.88L6.89 16.88L6.89 29.21L6.89 29.21Q6.89 30.09 7.37 30.58L7.37 30.58L7.37 30.58Q7.86 31.06 8.74 31.06L8.74 31.06L25.22 31.06ZM49.80 16.63L49.80 37.46L49.80 37.46Q49.80 38.64 49.50 39.58L49.50 39.58L49.50 39.58Q49.20 40.52 48.71 41.23L48.71 41.23L48.71 41.23Q48.22 41.94 47.57 42.44L47.57 42.44L47.57 42.44Q46.92 42.94 46.20 43.26L46.20 43.26L46.20 43.26Q45.49 43.58 44.77 43.73L44.77 43.73L44.77 43.73Q44.05 43.88 43.40 43.88L43.40 43.88L35.16 43.88L35.16 39.30L43.40 39.30L43.40 39.30Q44.31 39.30 44.77 38.83L44.77 38.83L44.77 38.83Q45.23 38.36 45.23 37.46L45.23 37.46L45.23 16.63L49.80 16.63ZM43.40 31.06L43.40 35.63L35.16 35.63L35.16 35.63Q34.17 35.63 33.06 35.30L33.06 35.30L33.06 35.30Q31.94 34.96 30.97 34.20L30.97 34.20L30.97 34.20Q30.01 33.43 29.37 32.21L29.37 32.21L29.37 32.21Q28.74 30.99 28.74 29.21L28.74 29.21L28.74 16.63L33.31 16.63L33.31 29.21L33.31 29.21Q33.31 30.11 33.79 30.59L33.79 30.59L33.79 30.59Q34.26 31.06 35.19 31.06L35.19 31.06L43.40 31.06ZM70.98 16.63L70.98 21.20L60.64 21.20L60.64 16.63L70.98 16.63ZM70.98 8.38L70.98 12.96L60.68 12.96L60.68 12.96Q59.75 12.96 59.27 13.42L59.27 13.42L59.27 13.42Q58.80 13.89 58.80 14.78L58.80 14.78L58.80 35.63L54.23 35.63L54.23 14.78L54.23 14.78Q54.23 13.61 54.53 12.67L54.53 12.67L54.53 12.67Q54.83 11.74 55.33 11.03L55.33 11.03L55.33 11.03Q55.83 10.32 56.48 9.82L56.48 9.82L56.48 9.82Q57.13 9.32 57.84 9L57.84 9L57.84 9Q58.55 8.68 59.27 8.53L59.27 8.53L59.27 8.53Q59.99 8.38 60.64 8.38L60.64 8.38L70.98 8.38ZM94.34 22.92L94.34 22.92L94.34 22.92Q94.34 23.87 94.01 24.97L94.01 24.97L94.01 24.97Q93.67 26.07 92.93 27.01L92.93 27.01L92.93 27.01Q92.18 27.95 90.98 28.58L90.98 28.58L90.98 28.58Q89.77 29.21 88.05 29.21L88.05 29.21L79.80 29.21L79.80 24.87L88.05 24.87L88.05 24.87Q88.98 24.87 89.49 24.30L89.49 24.30L89.49 24.30Q90 23.73 90 22.89L90 22.89L90 22.89Q90 21.99 89.43 21.48L89.43 21.48L89.43 21.48Q88.86 20.97 88.05 20.97L88.05 20.97L79.80 20.97L79.80 20.97Q78.87 20.97 78.36 21.54L78.36 21.54L78.36 21.54Q77.85 22.11 77.85 22.96L77.85 22.96L77.85 29.34L77.85 29.34Q77.85 30.25 78.42 30.76L78.42 30.76L78.42 30.76Q79.00 31.27 79.84 31.27L79.84 31.27L88.05 31.27L88.05 35.63L79.80 35.63L79.80 35.63Q78.86 35.63 77.76 35.30L77.76 35.30L77.76 35.30Q76.66 34.96 75.72 34.22L75.72 34.22L75.72 34.22Q74.78 33.47 74.14 32.26L74.14 32.26L74.14 32.26Q73.51 31.06 73.51 29.34L73.51 29.34L73.51 22.92L73.51 22.92Q73.51 21.97 73.85 20.87L73.85 20.87L73.85 20.87Q74.18 19.78 74.93 18.83L74.93 18.83L74.93 18.83Q75.67 17.89 76.88 17.26L76.88 17.26L76.88 17.26Q78.08 16.63 79.80 16.63L79.80 16.63L88.05 16.63L88.05 16.63Q89.00 16.63 90.10 16.96L90.10 16.96L90.10 16.96Q91.20 17.30 92.14 18.04L92.14 18.04L92.14 18.04Q93.08 18.79 93.71 20.00L93.71 20.00L93.71 20.00Q94.34 21.20 94.34 22.92ZM114.05 16.63L114.05 21.20L103.76 21.20L103.76 21.20Q102.83 21.20 102.36 21.67L102.36 21.67L102.36 21.67Q101.88 22.13 101.88 23.03L101.88 23.03L101.88 35.63L97.31 35.63L97.31 23.03L97.31 23.03Q97.31 21.85 97.61 20.92L97.61 20.92L97.61 20.92Q97.91 19.99 98.41 19.27L98.41 19.27L98.41 19.27Q98.91 18.56 99.56 18.06L99.56 18.06L99.56 18.06Q100.21 17.56 100.92 17.24L100.92 17.24L100.92 17.24Q101.64 16.93 102.37 16.78L102.37 16.78L102.37 16.78Q103.10 16.63 103.73 16.63L103.73 16.63L114.05 16.63ZM134.33 16.63L134.33 21.20L126.35 21.20L126.35 35.63L121.73 35.63L121.73 21.20L115.79 21.20L115.79 16.63L121.73 16.63L121.73 10.42L126.35 10.42L126.35 16.63L134.33 16.63ZM157.71 22.92L157.71 22.92L157.71 22.92Q157.71 23.87 157.38 24.97L157.38 24.97L157.38 24.97Q157.04 26.07 156.30 27.01L156.30 27.01L156.30 27.01Q155.55 27.95 154.34 28.58L154.34 28.58L154.34 28.58Q153.14 29.21 151.42 29.21L151.42 29.21L143.17 29.21L143.17 24.87L151.42 24.87L151.42 24.87Q152.35 24.87 152.86 24.30L152.86 24.30L152.86 24.30Q153.37 23.73 153.37 22.89L153.37 22.89L153.37 22.89Q153.37 21.99 152.80 21.48L152.80 21.48L152.80 21.48Q152.23 20.97 151.42 20.97L151.42 20.97L143.17 20.97L143.17 20.97Q142.24 20.97 141.73 21.54L141.73 21.54L141.73 21.54Q141.22 22.11 141.22 22.96L141.22 22.96L141.22 29.34L141.22 29.34Q141.22 30.25 141.79 30.76L141.79 30.76L141.79 30.76Q142.37 31.27 143.21 31.27L143.21 31.27L151.42 31.27L151.42 35.63L143.17 35.63L143.17 35.63Q142.22 35.63 141.13 35.30L141.13 35.30L141.13 35.30Q140.03 34.96 139.09 34.22L139.09 34.22L139.09 34.22Q138.15 33.47 137.51 32.26L137.51 32.26L137.51 32.26Q136.88 31.06 136.88 29.34L136.88 29.34L136.88 22.92L136.88 22.92Q136.88 21.97 137.21 20.87L137.21 20.87L137.21 20.87Q137.55 19.78 138.30 18.83L138.30 18.83L138.30 18.83Q139.04 17.89 140.25 17.26L140.25 17.26L140.25 17.26Q141.45 16.63 143.17 16.63L143.17 16.63L151.42 16.63L151.42 16.63Q152.37 16.63 153.47 16.96L153.47 16.96L153.47 16.96Q154.56 17.30 155.50 18.04L155.50 18.04L155.50 18.04Q156.45 18.79 157.08 20.00L157.08 20.00L157.08 20.00Q157.71 21.20 157.71 22.92ZM172.35 25.26L183.11 35.63L176.52 35.63L167.31 26.74L167.31 26.74Q166.54 26.03 166.59 24.98L166.59 24.98L166.59 24.98Q166.62 24.49 166.84 24.06L166.84 24.06L166.84 24.06Q167.06 23.63 167.45 23.33L167.45 23.33L175.80 16.59L183.11 16.59L172.35 25.26ZM165.43 8.60L165.43 35.63L160.86 35.63L160.86 8.60L165.43 8.60Z" transform="rotate(0 92.7149965763092 26.130000114440918)"></path><defs id="SvgjsDefs1010"></defs></svg></g><g id="SvgjsG1013" transform="rotate(0 90.390625 172.65625)"><svg xmlns="http://www.w3.org/2000/svg" xmlns:xlink="http://www.w3.org/1999/xlink" width="175.5" viewBox="0.7300000190734863 2.8499999046325684 175.5 16.5" overflow="visible" style="overflow: visible;" transform="" version="1.1" xmlns:svgjs="http://svgjs.com/svgjs" preserveAspectRatio="none" height="16.5" x="2.640625" y="164.40625" fill="#000000" stroke="none"><path stroke="none" fill="#8c8c8c" d="M8.37 12.80L8.37 12.80L8.37 12.80Q8.37 11.80 7.66 11.21L7.66 11.21L7.66 11.21Q6.96 10.63 5.08 10.10L5.08 10.10L5.08 10.10Q3.20 9.57 2.34 8.95L2.34 8.95L2.34 8.95Q1.11 8.07 1.11 6.64L1.11 6.64L1.11 6.64Q1.11 5.25 2.25 4.39L2.25 4.39L2.25 4.39Q3.40 3.52 5.17 3.52L5.17 3.52L5.17 3.52Q6.38 3.52 7.33 3.98L7.33 3.98L7.33 3.98Q8.28 4.45 8.80 5.28L8.80 5.28L8.80 5.28Q9.32 6.11 9.32 7.13L9.32 7.13L8.29 7.13L8.29 7.13Q8.29 5.89 7.45 5.14L7.45 5.14L7.45 5.14Q6.60 4.39 5.17 4.39L5.17 4.39L5.17 4.39Q3.79 4.39 2.96 5.01L2.96 5.01L2.96 5.01Q2.14 5.63 2.14 6.62L2.14 6.62L2.14 6.62Q2.14 7.55 2.88 8.13L2.88 8.13L2.88 8.13Q3.62 8.71 5.25 9.15L5.25 9.15L5.25 9.15Q6.87 9.60 7.71 10.07L7.71 10.07L7.71 10.07Q8.55 10.55 8.97 11.21L8.97 11.21L8.97 11.21Q9.40 11.88 9.40 12.78L9.40 12.78L9.40 12.78Q9.40 14.21 8.26 15.07L8.26 15.07L8.26 15.07Q7.11 15.94 5.25 15.94L5.25 15.94L5.25 15.94Q3.97 15.94 2.90 15.48L2.90 15.48L2.90 15.48Q1.83 15.02 1.28 14.20L1.28 14.20L1.28 14.20Q0.73 13.38 0.73 12.32L0.73 12.32L1.75 12.32L1.75 12.32Q1.75 13.60 2.71 14.34L2.71 14.34L2.71 14.34Q3.66 15.07 5.25 15.07L5.25 15.07L5.25 15.07Q6.66 15.07 7.51 14.45L7.51 14.45L7.51 14.45Q8.37 13.83 8.37 12.80ZM11.82 11.35L11.82 11.15L11.82 11.15Q11.82 9.85 12.32 8.82L12.32 8.82L12.32 8.82Q12.82 7.78 13.74 7.20L13.74 7.20L13.74 7.20Q14.65 6.62 15.82 6.62L15.82 6.62L15.82 6.62Q17.61 6.62 18.72 7.88L18.72 7.88L18.72 7.88Q19.83 9.14 19.83 11.21L19.83 11.21L19.83 11.42L19.83 11.42Q19.83 12.73 19.33 13.77L19.33 13.77L19.33 13.77Q18.83 14.81 17.92 15.37L17.92 15.37L17.92 15.37Q17.00 15.94 15.83 15.94L15.83 15.94L15.83 15.94Q14.05 15.94 12.93 14.68L12.93 14.68L12.93 14.68Q11.82 13.42 11.82 11.35L11.82 11.35ZM12.81 11.24L12.81 11.42L12.81 11.42Q12.81 13.03 13.65 14.07L13.65 14.07L13.65 14.07Q14.48 15.10 15.83 15.10L15.83 15.10L15.83 15.10Q17.18 15.10 18.01 14.07L18.01 14.07L18.01 14.07Q18.85 13.03 18.85 11.34L18.85 11.34L18.85 11.15L18.85 11.15Q18.85 10.12 18.46 9.26L18.46 9.26L18.46 9.26Q18.08 8.41 17.39 7.94L17.39 7.94L17.39 7.94Q16.71 7.47 15.82 7.47L15.82 7.47L15.82 7.47Q14.49 7.47 13.65 8.51L13.65 8.51L13.65 8.51Q12.81 9.55 12.81 11.24L12.81 11.24ZM24.59 15.77L23.60 15.77L23.60 7.60L22.11 7.60L22.11 6.79L23.60 6.79L23.60 5.70L23.60 5.70Q23.60 4.32 24.30 3.59L24.30 3.59L24.30 3.59Q25.00 2.85 26.25 2.85L26.25 2.85L26.25 2.85Q26.82 2.85 27.31 2.99L27.31 2.99L27.23 3.82L27.23 3.82Q26.82 3.72 26.33 3.72L26.33 3.72L26.33 3.72Q25.51 3.72 25.05 4.23L25.05 4.23L25.05 4.23Q24.59 4.74 24.59 5.68L24.59 5.68L24.59 6.79L26.74 6.79L26.74 7.60L24.59 7.60L24.59 15.77ZM30.06 4.49L31.06 4.49L31.06 6.79L32.92 6.79L32.92 7.60L31.06 7.60L31.06 13.59L31.06 13.59Q31.06 14.34 31.33 14.70L31.33 14.70L31.33 14.70Q31.60 15.07 32.23 15.07L32.23 15.07L32.23 15.07Q32.48 15.07 33.03 14.98L33.03 14.98L33.07 15.80L33.07 15.80Q32.68 15.94 32.01 15.94L32.01 15.94L32.01 15.94Q30.99 15.94 30.53 15.34L30.53 15.34L30.53 15.34Q30.06 14.75 30.06 13.60L30.06 13.60L30.06 7.60L28.41 7.60L28.41 6.79L30.06 6.79L30.06 4.49ZM36.22 6.79L38.12 13.70L38.27 14.48L38.47 13.66L40.63 6.79L41.48 6.79L43.61 13.60L43.84 14.55L44.03 13.68L45.88 6.79L46.91 6.79L44.29 15.77L43.45 15.77L41.14 8.65L41.03 8.16L40.92 8.66L38.66 15.77L37.81 15.77L35.20 6.79L36.22 6.79ZM56.52 15.77L55.46 15.77L55.46 15.77Q55.31 15.35 55.27 14.52L55.27 14.52L55.27 14.52Q54.75 15.20 53.94 15.57L53.94 15.57L53.94 15.57Q53.13 15.94 52.22 15.94L52.22 15.94L52.22 15.94Q50.93 15.94 50.13 15.22L50.13 15.22L50.13 15.22Q49.33 14.49 49.33 13.39L49.33 13.39L49.33 13.39Q49.33 12.08 50.42 11.31L50.42 11.31L50.42 11.31Q51.51 10.55 53.46 10.55L53.46 10.55L55.26 10.55L55.26 9.53L55.26 9.53Q55.26 8.57 54.67 8.01L54.67 8.01L54.67 8.01Q54.07 7.46 52.94 7.46L52.94 7.46L52.94 7.46Q51.90 7.46 51.22 7.99L51.22 7.99L51.22 7.99Q50.54 8.52 50.54 9.27L50.54 9.27L49.54 9.26L49.54 9.26Q49.54 8.19 50.54 7.41L50.54 7.41L50.54 7.41Q51.53 6.62 52.99 6.62L52.99 6.62L52.99 6.62Q54.49 6.62 55.36 7.38L55.36 7.38L55.36 7.38Q56.22 8.13 56.25 9.47L56.25 9.47L56.25 13.72L56.25 13.72Q56.25 15.02 56.52 15.67L56.52 15.67L56.52 15.77ZM52.34 15.06L52.34 15.06L52.34 15.06Q53.34 15.06 54.12 14.58L54.12 14.58L54.12 14.58Q54.90 14.09 55.26 13.29L55.26 13.29L55.26 11.31L53.48 11.31L53.48 11.31Q52.00 11.33 51.16 11.86L51.16 11.86L51.16 11.86Q50.32 12.38 50.32 13.31L50.32 13.31L50.32 13.31Q50.32 14.06 50.88 14.56L50.88 14.56L50.88 14.56Q51.44 15.06 52.34 15.06ZM64.07 6.73L64.05 7.64L64.05 7.64Q63.73 7.58 63.38 7.58L63.38 7.58L63.38 7.58Q62.45 7.58 61.80 8.10L61.80 8.10L61.80 8.10Q61.16 8.62 60.88 9.60L60.88 9.60L60.88 15.77L59.90 15.77L59.90 6.79L60.87 6.79L60.88 8.22L60.88 8.22Q61.67 6.62 63.42 6.62L63.42 6.62L63.42 6.62Q63.83 6.62 64.07 6.73L64.07 6.73ZM69.94 15.94L69.94 15.94L69.94 15.94Q68.79 15.94 67.87 15.37L67.87 15.37L67.87 15.37Q66.94 14.81 66.43 13.80L66.43 13.80L66.43 13.80Q65.91 12.79 65.91 11.54L65.91 11.54L65.91 11.18L65.91 11.18Q65.91 9.89 66.41 8.85L66.41 8.85L66.41 8.85Q66.92 7.81 67.81 7.22L67.81 7.22L67.81 7.22Q68.71 6.62 69.75 6.62L69.75 6.62L69.75 6.62Q71.39 6.62 72.35 7.74L72.35 7.74L72.35 7.74Q73.31 8.86 73.31 10.79L73.31 10.79L73.31 11.35L66.90 11.35L66.90 11.54L66.90 11.54Q66.90 13.07 67.77 14.08L67.77 14.08L67.77 14.08Q68.65 15.10 69.98 15.10L69.98 15.10L69.98 15.10Q70.77 15.10 71.39 14.81L71.39 14.81L71.39 14.81Q72.00 14.52 72.49 13.88L72.49 13.88L73.12 14.35L73.12 14.35Q72.02 15.94 69.94 15.94ZM69.75 7.47L69.75 7.47L69.75 7.47Q68.63 7.47 67.87 8.29L67.87 8.29L67.87 8.29Q67.10 9.11 66.93 10.50L66.93 10.50L72.32 10.50L72.32 10.39L72.32 10.39Q72.28 9.10 71.58 8.28L71.58 8.28L71.58 8.28Q70.88 7.47 69.75 7.47ZM88.28 9.11L88.28 9.98L82.63 9.98L82.63 14.91L89.13 14.91L89.13 15.77L81.61 15.77L81.61 3.69L89.09 3.69L89.09 4.56L82.63 4.56L82.63 9.11L88.28 9.11ZM92.04 6.79L92.99 6.79L93.02 8.33L93.02 8.33Q93.53 7.50 94.29 7.06L94.29 7.06L94.29 7.06Q95.04 6.62 95.95 6.62L95.95 6.62L95.95 6.62Q97.40 6.62 98.10 7.44L98.10 7.44L98.10 7.44Q98.81 8.25 98.82 9.88L98.82 9.88L98.82 15.77L97.83 15.77L97.83 9.87L97.83 9.87Q97.82 8.67 97.32 8.08L97.32 8.08L97.32 8.08Q96.82 7.49 95.71 7.49L95.71 7.49L95.71 7.49Q94.79 7.49 94.08 8.06L94.08 8.06L94.08 8.06Q93.37 8.64 93.03 9.62L93.03 9.62L93.03 15.77L92.04 15.77L92.04 6.79ZM101.98 11.33L101.98 11.20L101.98 11.20Q101.98 9.09 102.92 7.86L102.92 7.86L102.92 7.86Q103.85 6.62 105.45 6.62L105.45 6.62L105.45 6.62Q107.29 6.62 108.24 8.08L108.24 8.08L108.29 6.79L109.22 6.79L109.22 15.59L109.22 15.59Q109.22 17.32 108.25 18.34L108.25 18.34L108.25 18.34Q107.28 19.35 105.62 19.35L105.62 19.35L105.62 19.35Q104.68 19.35 103.83 18.93L103.83 18.93L103.83 18.93Q102.98 18.51 102.49 17.81L102.49 17.81L103.05 17.22L103.05 17.22Q104.10 18.51 105.55 18.51L105.55 18.51L105.55 18.51Q106.80 18.51 107.50 17.78L107.50 17.78L107.50 17.78Q108.19 17.04 108.22 15.74L108.22 15.74L108.22 14.61L108.22 14.61Q107.26 15.94 105.44 15.94L105.44 15.94L105.44 15.94Q103.88 15.94 102.93 14.69L102.93 14.69L102.93 14.69Q101.98 13.45 101.98 11.33L101.98 11.33ZM102.99 11.37L102.99 11.37L102.99 11.37Q102.99 13.09 103.68 14.08L103.68 14.08L103.68 14.08Q104.37 15.07 105.62 15.07L105.62 15.07L105.62 15.07Q107.46 15.07 108.22 13.43L108.22 13.43L108.22 9.26L108.22 9.26Q107.87 8.39 107.21 7.94L107.21 7.94L107.21 7.94Q106.56 7.49 105.64 7.49L105.64 7.49L105.64 7.49Q104.38 7.49 103.69 8.47L103.69 8.47L103.69 8.47Q102.99 9.45 102.99 11.37ZM113.93 6.79L113.93 15.77L112.93 15.77L112.93 6.79L113.93 6.79ZM112.75 4.19L112.75 4.19L112.75 4.19Q112.75 3.91 112.94 3.71L112.94 3.71L112.94 3.71Q113.12 3.52 113.44 3.52L113.44 3.52L113.44 3.52Q113.75 3.52 113.94 3.71L113.94 3.71L113.94 3.71Q114.12 3.91 114.12 4.19L114.12 4.19L114.12 4.19Q114.12 4.47 113.94 4.67L113.94 4.67L113.94 4.67Q113.75 4.86 113.44 4.86L113.44 4.86L113.44 4.86Q113.12 4.86 112.94 4.67L112.94 4.67L112.94 4.67Q112.75 4.47 112.75 4.19ZM117.62 6.79L118.57 6.79L118.60 8.33L118.60 8.33Q119.11 7.50 119.86 7.06L119.86 7.06L119.86 7.06Q120.62 6.62 121.53 6.62L121.53 6.62L121.53 6.62Q122.98 6.62 123.68 7.44L123.68 7.44L123.68 7.44Q124.39 8.25 124.40 9.88L124.40 9.88L124.40 15.77L123.41 15.77L123.41 9.87L123.41 9.87Q123.40 8.67 122.90 8.08L122.90 8.08L122.90 8.08Q122.40 7.49 121.29 7.49L121.29 7.49L121.29 7.49Q120.37 7.49 119.66 8.06L119.66 8.06L119.66 8.06Q118.95 8.64 118.61 9.62L118.61 9.62L118.61 15.77L117.62 15.77L117.62 6.79ZM131.44 15.94L131.44 15.94L131.44 15.94Q130.29 15.94 129.37 15.37L129.37 15.37L129.37 15.37Q128.44 14.81 127.93 13.80L127.93 13.80L127.93 13.80Q127.41 12.79 127.41 11.54L127.41 11.54L127.41 11.18L127.41 11.18Q127.41 9.89 127.92 8.85L127.92 8.85L127.92 8.85Q128.42 7.81 129.31 7.22L129.31 7.22L129.31 7.22Q130.21 6.62 131.26 6.62L131.26 6.62L131.26 6.62Q132.89 6.62 133.85 7.74L133.85 7.74L133.85 7.74Q134.81 8.86 134.81 10.79L134.81 10.79L134.81 11.35L128.40 11.35L128.40 11.54L128.40 11.54Q128.40 13.07 129.28 14.08L129.28 14.08L129.28 14.08Q130.15 15.10 131.48 15.10L131.48 15.10L131.48 15.10Q132.28 15.10 132.89 14.81L132.89 14.81L132.89 14.81Q133.50 14.52 134.00 13.88L134.00 13.88L134.62 14.35L134.62 14.35Q133.52 15.94 131.44 15.94ZM131.26 7.47L131.26 7.47L131.26 7.47Q130.14 7.47 129.37 8.29L129.37 8.29L129.37 8.29Q128.60 9.11 128.43 10.50L128.43 10.50L133.82 10.50L133.82 10.39L133.82 10.39Q133.78 9.10 133.08 8.28L133.08 8.28L133.08 8.28Q132.39 7.47 131.26 7.47ZM141.22 15.94L141.22 15.94L141.22 15.94Q140.08 15.94 139.15 15.37L139.15 15.37L139.15 15.37Q138.23 14.81 137.71 13.80L137.71 13.80L137.71 13.80Q137.20 12.79 137.20 11.54L137.20 11.54L137.20 11.18L137.20 11.18Q137.20 9.89 137.70 8.85L137.70 8.85L137.70 8.85Q138.20 7.81 139.10 7.22L139.10 7.22L139.10 7.22Q139.99 6.62 141.04 6.62L141.04 6.62L141.04 6.62Q142.67 6.62 143.63 7.74L143.63 7.74L143.63 7.74Q144.59 8.86 144.59 10.79L144.59 10.79L144.59 11.35L138.18 11.35L138.18 11.54L138.18 11.54Q138.18 13.07 139.06 14.08L139.06 14.08L139.06 14.08Q139.94 15.10 141.26 15.10L141.26 15.10L141.26 15.10Q142.06 15.10 142.67 14.81L142.67 14.81L142.67 14.81Q143.28 14.52 143.78 13.88L143.78 13.88L144.40 14.35L144.40 14.35Q143.31 15.94 141.22 15.94ZM141.04 7.47L141.04 7.47L141.04 7.47Q139.92 7.47 139.15 8.29L139.15 8.29L139.15 8.29Q138.38 9.11 138.22 10.50L138.22 10.50L143.60 10.50L143.60 10.39L143.60 10.39Q143.56 9.10 142.87 8.28L142.87 8.28L142.87 8.28Q142.17 7.47 141.04 7.47ZM151.70 6.73L151.68 7.64L151.68 7.64Q151.36 7.58 151.00 7.58L151.00 7.58L151.00 7.58Q150.07 7.58 149.43 8.10L149.43 8.10L149.43 8.10Q148.79 8.62 148.51 9.60L148.51 9.60L148.51 15.77L147.53 15.77L147.53 6.79L148.50 6.79L148.51 8.22L148.51 8.22Q149.30 6.62 151.05 6.62L151.05 6.62L151.05 6.62Q151.46 6.62 151.70 6.73L151.70 6.73ZM155.36 6.79L155.36 15.77L154.36 15.77L154.36 6.79L155.36 6.79ZM154.19 4.19L154.19 4.19L154.19 4.19Q154.19 3.91 154.37 3.71L154.37 3.71L154.37 3.71Q154.55 3.52 154.87 3.52L154.87 3.52L154.87 3.52Q155.18 3.52 155.37 3.71L155.37 3.71L155.37 3.71Q155.56 3.91 155.56 4.19L155.56 4.19L155.56 4.19Q155.56 4.47 155.37 4.67L155.37 4.67L155.37 4.67Q155.18 4.86 154.87 4.86L154.87 4.86L154.87 4.86Q154.55 4.86 154.37 4.67L154.37 4.67L154.37 4.67Q154.19 4.47 154.19 4.19ZM159.06 6.79L160.00 6.79L160.03 8.33L160.03 8.33Q160.54 7.50 161.30 7.06L161.30 7.06L161.30 7.06Q162.05 6.62 162.96 6.62L162.96 6.62L162.96 6.62Q164.41 6.62 165.11 7.44L165.11 7.44L165.11 7.44Q165.82 8.25 165.83 9.88L165.83 9.88L165.83 15.77L164.84 15.77L164.84 9.87L164.84 9.87Q164.83 8.67 164.33 8.08L164.33 8.08L164.33 8.08Q163.83 7.49 162.72 7.49L162.72 7.49L162.72 7.49Q161.80 7.49 161.09 8.06L161.09 8.06L161.09 8.06Q160.38 8.64 160.04 9.62L160.04 9.62L160.04 15.77L159.06 15.77L159.06 6.79ZM169.00 11.33L169.00 11.20L169.00 11.20Q169.00 9.09 169.93 7.86L169.93 7.86L169.93 7.86Q170.86 6.62 172.46 6.62L172.46 6.62L172.46 6.62Q174.30 6.62 175.25 8.08L175.25 8.08L175.30 6.79L176.23 6.79L176.23 15.59L176.23 15.59Q176.23 17.32 175.26 18.34L175.26 18.34L175.26 18.34Q174.29 19.35 172.63 19.35L172.63 19.35L172.63 19.35Q171.69 19.35 170.84 18.93L170.84 18.93L170.84 18.93Q169.99 18.51 169.50 17.81L169.50 17.81L170.06 17.22L170.06 17.22Q171.11 18.51 172.56 18.51L172.56 18.51L172.56 18.51Q173.81 18.51 174.51 17.78L174.51 17.78L174.51 17.78Q175.20 17.04 175.23 15.74L175.23 15.74L175.23 14.61L175.23 14.61Q174.27 15.94 172.45 15.94L172.45 15.94L172.45 15.94Q170.89 15.94 169.94 14.69L169.94 14.69L169.94 14.69Q169.00 13.45 169.00 11.33L169.00 11.33ZM170.00 11.37L170.00 11.37L170.00 11.37Q170.00 13.09 170.69 14.08L170.69 14.08L170.69 14.08Q171.38 15.07 172.63 15.07L172.63 15.07L172.63 15.07Q174.47 15.07 175.23 13.43L175.23 13.43L175.23 9.26L175.23 9.26Q174.88 8.39 174.22 7.94L174.22 7.94L174.22 7.94Q173.57 7.49 172.65 7.49L172.65 7.49L172.65 7.49Q171.39 7.49 170.70 8.47L170.70 8.47L170.70 8.47Q170.00 9.45 170.00 11.37Z" transform="rotate(0 88.48000001907349 11.099999904632568)"></path><defs id="SvgjsDefs1012"></defs></svg></g></svg>